<mxfile host="app.diagrams.net" modified="2023-11-30T23:42:39.024Z" agent="Mozilla/5.0 (X11; Linux x86_64; rv:121.0) Gecko/20100101 Firefox/121.0" etag="bEmook9Aoh5OSzGBOr7A" version="22.1.5" type="github">
  <diagram name="Page-1" id="HAKWRPtFKpujEKmy2k8a">
    <mxGraphModel dx="1191" dy="614" grid="1" gridSize="10" guides="1" tooltips="1" connect="1" arrows="1" fold="1" page="1" pageScale="1" pageWidth="827" pageHeight="1169" math="0" shadow="0">
      <root>
        <mxCell id="0" />
        <mxCell id="1" parent="0" />
        <mxCell id="TAzVSUXhQpux9r2QWeHI-1" value="" style="swimlane;startSize=0;" vertex="1" parent="1">
          <mxGeometry x="160" y="80" width="520" height="400" as="geometry" />
        </mxCell>
        <mxCell id="TAzVSUXhQpux9r2QWeHI-2" value="&lt;b&gt;WIFI&lt;/b&gt;" style="html=1;strokeWidth=1;shadow=0;dashed=0;shape=mxgraph.ios7.misc.wifi;fillColor=#007AFF;strokeColor=none;buttonText=;strokeColor2=#222222;fontColor=#222222;fontSize=8;verticalLabelPosition=bottom;verticalAlign=top;align=center;sketch=0;" vertex="1" parent="TAzVSUXhQpux9r2QWeHI-1">
          <mxGeometry y="40" width="15" height="15" as="geometry" />
        </mxCell>
        <mxCell id="TAzVSUXhQpux9r2QWeHI-16" value="" style="edgeStyle=orthogonalEdgeStyle;rounded=0;orthogonalLoop=1;jettySize=auto;html=1;" edge="1" parent="TAzVSUXhQpux9r2QWeHI-1" source="TAzVSUXhQpux9r2QWeHI-3">
          <mxGeometry relative="1" as="geometry">
            <mxPoint x="182.4000000000001" y="204.79999999999995" as="targetPoint" />
          </mxGeometry>
        </mxCell>
        <mxCell id="TAzVSUXhQpux9r2QWeHI-3" value="&lt;h2 style=&quot;font-size: 10px;&quot;&gt;Processeur 16-Core (8 Performance-Cores + 8 Efficient-Cores) 24-Threads Socket 1700 Cache L3 30 Mo 0.010 micron&lt;/h2&gt;" style="pointerEvents=1;shadow=0;dashed=0;html=1;strokeColor=none;fillColor=#4495D1;labelPosition=center;verticalLabelPosition=bottom;verticalAlign=top;align=center;outlineConnect=0;shape=mxgraph.veeam.cpu;" vertex="1" parent="TAzVSUXhQpux9r2QWeHI-1">
          <mxGeometry x="190" y="40" width="44.8" height="44.8" as="geometry" />
        </mxCell>
        <mxCell id="TAzVSUXhQpux9r2QWeHI-4" value="&amp;nbsp;&amp;nbsp;&amp;nbsp;&amp;nbsp;&amp;nbsp;&amp;nbsp;&amp;nbsp;&amp;nbsp;&amp;nbsp;&amp;nbsp;&amp;nbsp;&amp;nbsp;&amp;nbsp;&amp;nbsp;&amp;nbsp;&amp;nbsp;&amp;nbsp;&amp;nbsp;&amp;nbsp;&amp;nbsp;&amp;nbsp;&amp;nbsp;&amp;nbsp;&amp;nbsp;&amp;nbsp; &lt;b&gt;32 Giga RAM X2 = 64 G&lt;br&gt;&lt;/b&gt;" style="pointerEvents=1;shadow=0;dashed=0;html=1;strokeColor=none;fillColor=#4495D1;labelPosition=center;verticalLabelPosition=bottom;verticalAlign=top;align=center;outlineConnect=0;shape=mxgraph.veeam.ram;" vertex="1" parent="TAzVSUXhQpux9r2QWeHI-1">
          <mxGeometry x="300" y="34.9" width="70" height="25.2" as="geometry" />
        </mxCell>
        <mxCell id="TAzVSUXhQpux9r2QWeHI-5" value="" style="pointerEvents=1;shadow=0;dashed=0;html=1;strokeColor=none;fillColor=#4495D1;labelPosition=center;verticalLabelPosition=bottom;verticalAlign=top;align=center;outlineConnect=0;shape=mxgraph.veeam.ram;" vertex="1" parent="TAzVSUXhQpux9r2QWeHI-1">
          <mxGeometry x="380" y="34.9" width="78.4" height="25.2" as="geometry" />
        </mxCell>
        <mxCell id="TAzVSUXhQpux9r2QWeHI-9" style="edgeStyle=orthogonalEdgeStyle;rounded=0;orthogonalLoop=1;jettySize=auto;html=1;" edge="1" parent="1" source="TAzVSUXhQpux9r2QWeHI-6" target="TAzVSUXhQpux9r2QWeHI-1">
          <mxGeometry relative="1" as="geometry" />
        </mxCell>
        <mxCell id="TAzVSUXhQpux9r2QWeHI-6" value="&lt;br&gt;&lt;p&gt;SSD NVMe SANDISK&lt;br&gt;&lt;/p&gt;&lt;p&gt;1 Terra octet&lt;br&gt;&lt;/p&gt;&lt;br&gt;" style="sketch=0;pointerEvents=1;shadow=0;dashed=0;html=1;strokeColor=none;fillColor=#434445;aspect=fixed;labelPosition=center;verticalLabelPosition=bottom;verticalAlign=top;align=center;outlineConnect=0;shape=mxgraph.vvd.ssd;" vertex="1" parent="1">
          <mxGeometry x="740" y="110" width="50" height="35.5" as="geometry" />
        </mxCell>
        <mxCell id="TAzVSUXhQpux9r2QWeHI-7" style="edgeStyle=orthogonalEdgeStyle;rounded=0;orthogonalLoop=1;jettySize=auto;html=1;" edge="1" parent="1" source="TAzVSUXhQpux9r2QWeHI-6" target="TAzVSUXhQpux9r2QWeHI-6">
          <mxGeometry relative="1" as="geometry" />
        </mxCell>
        <mxCell id="TAzVSUXhQpux9r2QWeHI-8" style="edgeStyle=orthogonalEdgeStyle;rounded=0;orthogonalLoop=1;jettySize=auto;html=1;" edge="1" parent="1" source="TAzVSUXhQpux9r2QWeHI-6" target="TAzVSUXhQpux9r2QWeHI-6">
          <mxGeometry relative="1" as="geometry" />
        </mxCell>
      </root>
    </mxGraphModel>
  </diagram>
</mxfile>
